<svg width="29" height="29" viewBox="0 0 29 29" fill="none" xmlns="http://www.w3.org/2000/svg">
<path d="M5.98792 8.3833H22.5026C22.8372 8.38331 23.1681 8.45344 23.474 8.58917C23.7798 8.7249 24.0539 8.92321 24.2784 9.17133C24.5029 9.41944 24.673 9.71185 24.7776 10.0297C24.8822 10.3476 24.919 10.6838 24.8857 11.0168L24.1672 18.2023C24.1081 18.7933 23.8315 19.3413 23.3911 19.7398C22.9507 20.1384 22.378 20.3591 21.784 20.3591H10.3471C9.7932 20.3593 9.25633 20.1676 8.82791 19.8164C8.3995 19.4653 8.10602 18.9766 7.99746 18.4334L5.98792 8.3833Z" stroke="white" stroke-width="2.21092" stroke-linejoin="round"/>
<path d="M5.98795 8.3831L5.0179 4.49934C4.95303 4.24037 4.80348 4.0105 4.59301 3.84625C4.38254 3.682 4.12323 3.59278 3.85625 3.59277H2.3952" stroke="white" stroke-width="2.21092" stroke-linecap="round" stroke-linejoin="round"/>
<path d="M9.58069 25.1492H11.9751" stroke="white" stroke-width="2.21092" stroke-linecap="round" stroke-linejoin="round"/>
<path d="M19.1613 25.1492H21.5558" stroke="white" stroke-width="2.21092" stroke-linecap="round" stroke-linejoin="round"/>
</svg>
