<svg width="23" height="23" viewBox="0 0 23 23" fill="none" xmlns="http://www.w3.org/2000/svg">
<path fill-rule="evenodd" clip-rule="evenodd" d="M11.0546 21.0037C16.5493 21.0037 21.0037 16.5493 21.0037 11.0546C21.0037 5.55991 16.5493 1.10546 11.0546 1.10546C5.55991 1.10546 1.10546 5.55991 1.10546 11.0546C1.10546 16.5493 5.55991 21.0037 11.0546 21.0037ZM11.0546 22.1092C17.1601 22.1092 22.1092 17.1601 22.1092 11.0546C22.1092 4.94915 17.1601 0 11.0546 0C4.94915 0 0 4.94915 0 11.0546C0 17.1601 4.94915 22.1092 11.0546 22.1092Z" fill="white"/>
<path d="M4.42188 17.4829C4.42188 16.9119 4.84858 16.4293 5.41679 16.3663C9.6811 15.8943 12.4475 15.9369 16.7024 16.3768C16.9149 16.3992 17.1163 16.4829 17.282 16.6177C17.4477 16.7526 17.5705 16.9328 17.6354 17.1364C17.7004 17.3399 17.7047 17.5579 17.6477 17.7638C17.5908 17.9698 17.4751 18.1547 17.3149 18.2959C12.2933 22.673 9.42353 22.6127 4.77562 18.3003C4.549 18.0903 4.42188 17.7918 4.42188 17.4834V17.4829Z" fill="white"/>
<path fill-rule="evenodd" clip-rule="evenodd" d="M16.6453 16.9265C12.4241 16.4899 9.69744 16.449 5.47679 16.916C5.19269 16.9475 4.97436 17.1902 4.97436 17.4837C4.97436 17.6418 5.04013 17.7915 5.15123 17.8955C7.45501 20.0323 9.20053 20.9979 10.9068 21.004C12.6192 21.0101 14.4587 20.0522 16.9515 17.88C17.0307 17.8095 17.0877 17.7175 17.1156 17.6152C17.1435 17.513 17.1411 17.4048 17.1086 17.3038C17.0762 17.2029 17.0151 17.1136 16.9329 17.0467C16.8506 16.9798 16.7507 16.9382 16.6453 16.9271V16.9265ZM5.35574 15.8172C9.66483 15.3402 12.4716 15.3833 16.7597 15.8271C17.0793 15.8605 17.3823 15.9863 17.6315 16.1893C17.8808 16.3922 18.0654 16.6633 18.1629 16.9696C18.2604 17.2758 18.2665 17.6038 18.1804 17.9135C18.0943 18.2231 17.9198 18.5009 17.6783 18.7129C15.1496 20.9172 13.0437 22.1178 10.9035 22.1095C8.75724 22.1017 6.7442 20.8808 4.40007 18.7058C4.23224 18.5494 4.09844 18.3602 4.00705 18.1498C3.91566 17.9394 3.86863 17.7125 3.8689 17.4831C3.86809 17.071 4.01935 16.6731 4.29371 16.3656C4.56806 16.0581 4.94622 15.8626 5.35574 15.8166V15.8172Z" fill="white"/>
<path d="M15.4763 8.84372C15.4763 10.0165 15.0104 11.1412 14.1811 11.9704C13.3519 12.7997 12.2272 13.2656 11.0544 13.2656C9.88166 13.2656 8.75695 12.7997 7.9277 11.9704C7.09844 11.1412 6.63257 10.0165 6.63257 8.84372C6.63257 7.67097 7.09844 6.54626 7.9277 5.717C8.75695 4.88775 9.88166 4.42188 11.0544 4.42188C12.2272 4.42188 13.3519 4.88775 14.1811 5.717C15.0104 6.54626 15.4763 7.67097 15.4763 8.84372Z" fill="white"/>
<path fill-rule="evenodd" clip-rule="evenodd" d="M11.0544 12.1601C11.934 12.1601 12.7775 11.8107 13.3994 11.1888C14.0214 10.5668 14.3708 9.72328 14.3708 8.84372C14.3708 7.96416 14.0214 7.12062 13.3994 6.49868C12.7775 5.87674 11.934 5.52734 11.0544 5.52734C10.1749 5.52734 9.33132 5.87674 8.70937 6.49868C8.08743 7.12062 7.73803 7.96416 7.73803 8.84372C7.73803 9.72328 8.08743 10.5668 8.70937 11.1888C9.33132 11.8107 10.1749 12.1601 11.0544 12.1601ZM11.0544 13.2656C12.2272 13.2656 13.3519 12.7997 14.1811 11.9704C15.0104 11.1412 15.4763 10.0165 15.4763 8.84372C15.4763 7.67097 15.0104 6.54626 14.1811 5.717C13.3519 4.88775 12.2272 4.42188 11.0544 4.42188C9.88166 4.42188 8.75695 4.88775 7.9277 5.717C7.09844 6.54626 6.63257 7.67097 6.63257 8.84372C6.63257 10.0165 7.09844 11.1412 7.9277 11.9704C8.75695 12.7997 9.88166 13.2656 11.0544 13.2656Z" fill="white"/>
</svg>
