<svg width="27" height="27" viewBox="0 0 27 27" fill="none" xmlns="http://www.w3.org/2000/svg">
<path opacity="0.1" fill-rule="evenodd" clip-rule="evenodd" d="M0 13.2655C0 5.93917 5.93917 0 13.2655 0C20.5918 0 26.531 5.93917 26.531 13.2655C26.531 20.5918 20.5918 26.531 13.2655 26.531C5.93917 26.531 0 20.5918 0 13.2655Z" fill="white"/>
<path fill-rule="evenodd" clip-rule="evenodd" d="M20.3404 13.2558C20.3404 13.7343 20.2917 14.2121 20.196 14.6778C20.1028 15.1325 19.9646 15.5789 19.7835 16.0056C19.6067 16.4248 19.3873 16.8287 19.131 17.2054C18.8784 17.5798 18.5875 17.9309 18.268 18.2511C17.9477 18.5698 17.5953 18.8599 17.2212 19.1135C16.8432 19.3681 16.4387 19.5871 16.0193 19.7648C15.5919 19.9449 15.1445 20.0829 14.6902 20.176C14.2239 20.2719 13.7443 20.3209 13.2652 20.3209C12.7857 20.3209 12.3061 20.2719 11.8404 20.176C11.3855 20.0829 10.9381 19.9449 10.5111 19.7648C10.0917 19.5871 9.68675 19.3681 9.30881 19.1135C8.93467 18.8599 8.58228 18.5698 8.26272 18.2511C7.94282 17.9309 7.65192 17.5798 7.39903 17.2054C7.14407 16.8287 6.92434 16.4248 6.74677 16.0056C6.56572 15.5789 6.42721 15.1325 6.33358 14.6778C6.23893 14.2121 6.19055 13.7343 6.19055 13.2558C6.19055 12.777 6.2389 12.2982 6.33361 11.8334C6.42724 11.3788 6.56575 10.9317 6.7468 10.5056C6.92436 10.0862 7.1441 9.68186 7.39906 9.30513C7.65194 8.9305 7.94285 8.57998 8.26275 8.25949C8.58231 7.94072 8.93469 7.65131 9.30884 7.3981C9.68678 7.14246 10.0917 6.92343 10.5111 6.7454C10.9381 6.56494 11.3855 6.42663 11.8405 6.33419C12.3062 6.23898 12.7857 6.19067 13.2652 6.19067C13.7444 6.19067 14.2239 6.23898 14.6903 6.33419C15.1445 6.42666 15.5919 6.56497 16.0193 6.7454C16.4387 6.9234 16.8433 7.14246 17.2212 7.3981C17.5953 7.65131 17.9478 7.94072 18.268 8.25949C18.5876 8.57998 18.8785 8.9305 19.131 9.30513C19.3873 9.68186 19.6067 10.0862 19.7835 10.5056C19.9646 10.9317 20.1028 11.3788 20.196 11.8334C20.2917 12.2982 20.3404 12.777 20.3404 13.2558ZM10.6872 7.7986C9.00232 8.5931 7.7448 10.1434 7.35268 12.0118C7.51197 12.0132 10.0298 12.0449 12.9307 11.2753C11.885 9.41998 10.7677 7.90592 10.6872 7.7986ZM13.4313 12.2043C10.3203 13.1343 7.33507 13.0674 7.22798 13.0633C7.22624 13.1282 7.22313 13.1909 7.22313 13.2558C7.22313 14.8058 7.80871 16.2188 8.7712 17.2872C8.76912 17.2841 10.4226 14.3549 13.6832 13.302C13.7619 13.2758 13.8421 13.2523 13.9215 13.2296C13.7699 12.8867 13.6044 12.5431 13.4313 12.2043ZM17.2554 8.72764C16.1916 7.791 14.7949 7.22287 13.2652 7.22287C12.7742 7.22287 12.2978 7.28221 11.8414 7.3919C11.9319 7.51335 13.0668 9.01674 14.1001 10.9113C16.38 10.0579 17.2405 8.7497 17.2554 8.72764ZM14.3334 14.2293C14.3199 14.2338 14.3065 14.2376 14.2933 14.2424C10.7284 15.4834 9.56427 17.9843 9.55167 18.0116C10.5774 18.8082 11.8639 19.2887 13.2652 19.2887C14.1019 19.2887 14.8989 19.1186 15.6241 18.8106C15.5346 18.2835 15.1836 16.4358 14.3334 14.2293ZM16.6415 18.2593C17.9981 17.3452 18.9616 15.8935 19.2304 14.212C19.1061 14.172 17.4157 13.6376 15.4654 13.9499C16.258 16.1246 16.58 17.8957 16.6415 18.2593ZM14.5652 11.8103C14.7054 12.0981 14.8412 12.3909 14.9666 12.6852C15.0112 12.7908 15.0547 12.8943 15.0972 12.9977C17.1728 12.7369 19.2177 13.1757 19.3051 13.1937C19.2913 11.7634 18.7789 10.4508 17.9312 9.42311C17.9198 9.43929 16.9507 10.8375 14.5652 11.8103Z" fill="white"/>
</svg>
