<svg width="27" height="27" viewBox="0 0 27 27" fill="none" xmlns="http://www.w3.org/2000/svg">
<path opacity="0.1" fill-rule="evenodd" clip-rule="evenodd" d="M0 13.2655C0 5.93917 5.93917 0 13.2655 0C20.5918 0 26.531 5.93917 26.531 13.2655C26.531 20.5918 20.5918 26.531 13.2655 26.531C5.93917 26.531 0 20.5918 0 13.2655Z" fill="white"/>
<path fill-rule="evenodd" clip-rule="evenodd" d="M13.2662 6.19067C11.3447 6.19067 11.1036 6.19908 10.3489 6.23342C9.5957 6.26791 9.08158 6.38715 8.63173 6.56211C8.1664 6.74282 7.77167 6.98455 7.37842 7.37795C6.98487 7.7712 6.74314 8.16593 6.56184 8.63111C6.38644 9.08111 6.26705 9.59538 6.23315 10.3483C6.1994 11.1029 6.19055 11.3442 6.19055 13.2657C6.19055 15.1871 6.1991 15.4275 6.2333 16.1822C6.26793 16.9354 6.38718 17.4495 6.56199 17.8994C6.74284 18.3647 6.98457 18.7594 7.37797 19.1527C7.77108 19.5462 8.16581 19.7886 8.63084 19.9693C9.08099 20.1442 9.59525 20.2635 10.3483 20.298C11.103 20.3323 11.344 20.3407 13.2653 20.3407C15.1869 20.3407 15.4273 20.3323 16.1819 20.298C16.9351 20.2635 17.4498 20.1442 17.9 19.9693C18.3652 19.7886 18.7593 19.5462 19.1524 19.1527C19.546 18.7594 19.7877 18.3647 19.969 17.8995C20.1429 17.4495 20.2623 16.9353 20.2977 16.1824C20.3316 15.4277 20.3404 15.1871 20.3404 13.2657C20.3404 11.3442 20.3316 11.1031 20.2977 10.3484C20.2623 9.59523 20.1429 9.08111 19.969 8.63126C19.7877 8.16593 19.546 7.7712 19.1524 7.37795C18.7589 6.9844 18.3653 6.74267 17.8996 6.56211C17.4485 6.38715 16.9341 6.26791 16.1809 6.23342C15.4262 6.19908 15.186 6.19067 13.2639 6.19067H13.2662ZM12.6314 7.46563C12.8198 7.46534 13.03 7.46563 13.2661 7.46563C15.1552 7.46563 15.379 7.47241 16.125 7.50631C16.8148 7.53785 17.1892 7.65312 17.4386 7.74996C17.7688 7.87819 18.0042 8.03148 18.2516 8.27911C18.4993 8.52673 18.6526 8.76257 18.7811 9.09274C18.8779 9.34184 18.9933 9.71622 19.0247 10.406C19.0586 11.1519 19.066 11.3759 19.066 13.264C19.066 15.1522 19.0586 15.3762 19.0247 16.1221C18.9932 16.8119 18.8779 17.1863 18.7811 17.4354C18.6529 17.7655 18.4993 18.0006 18.2516 18.2481C18.004 18.4957 17.7689 18.649 17.4386 18.7772C17.1895 18.8745 16.8148 18.9895 16.125 19.021C15.3792 19.0549 15.1552 19.0623 13.2661 19.0623C11.3769 19.0623 11.1531 19.0549 10.4072 19.021C9.71742 18.9892 9.34303 18.8739 9.09349 18.7771C8.76332 18.6489 8.52749 18.4956 8.27986 18.2479C8.03224 18.0003 7.87894 17.7651 7.75041 17.4348C7.65358 17.1857 7.53816 16.8113 7.50677 16.1215C7.47287 15.3756 7.46609 15.1516 7.46609 13.2623C7.46609 11.373 7.47287 11.1501 7.50677 10.4043C7.53831 9.71445 7.65358 9.34007 7.75041 9.09067C7.87865 8.7605 8.03224 8.52467 8.27986 8.27705C8.52749 8.02942 8.76332 7.87613 9.09349 7.7476C9.34288 7.65032 9.71742 7.53535 10.4072 7.50366C11.0599 7.47418 11.3128 7.46534 12.6314 7.46386V7.46563ZM17.0427 8.64038C16.574 8.64038 16.1937 9.02022 16.1937 9.48909C16.1937 9.95781 16.574 10.3381 17.0427 10.3381C17.5114 10.3381 17.8917 9.95781 17.8917 9.48909C17.8917 9.02037 17.5114 8.64038 17.0427 8.64038ZM13.2662 9.63235C11.2597 9.63235 9.63285 11.2592 9.63285 13.2657C9.63285 15.2722 11.2597 16.8982 13.2662 16.8982C15.2727 16.8982 16.8989 15.2722 16.8989 13.2657C16.8989 11.2592 15.2727 9.63235 13.2662 9.63235ZM13.2661 10.9073C14.5685 10.9073 15.6245 11.9631 15.6245 13.2657C15.6245 14.5681 14.5685 15.624 13.2661 15.624C11.9636 15.624 10.9078 14.5681 10.9078 13.2657C10.9078 11.9631 11.9636 10.9073 13.2661 10.9073Z" fill="white"/>
</svg>
