<svg width="27" height="27" viewBox="0 0 27 27" fill="none" xmlns="http://www.w3.org/2000/svg">
<path opacity="0.1" fill-rule="evenodd" clip-rule="evenodd" d="M0 13.2655C0 5.93917 5.93917 0 13.2655 0C20.5918 0 26.531 5.93917 26.531 13.2655C26.531 20.5918 20.5918 26.531 13.2655 26.531C5.93917 26.531 0 20.5918 0 13.2655Z" fill="white"/>
<path fill-rule="evenodd" clip-rule="evenodd" d="M12.8682 10.7823L12.896 11.2413L12.4321 11.1851C10.7433 10.9696 9.26797 10.239 8.01532 9.0118L7.4029 8.4029L7.24516 8.85255C6.91112 9.85489 7.12454 10.9134 7.82046 11.6254C8.19162 12.0188 8.1081 12.075 7.46786 11.8408C7.24516 11.7659 7.0503 11.7097 7.03175 11.7378C6.96679 11.8034 7.18949 12.6558 7.36579 12.9931C7.60704 13.4615 8.09883 13.9205 8.637 14.1921L9.09167 14.4076L8.55349 14.417C8.03387 14.417 8.01532 14.4263 8.07099 14.623C8.25657 15.2319 8.9896 15.8783 9.80615 16.1593L10.3814 16.3561L9.88038 16.6558C9.13807 17.0867 8.26585 17.3303 7.39363 17.349C6.97607 17.3584 6.63275 17.3959 6.63275 17.424C6.63275 17.5177 7.76478 18.0422 8.42359 18.2483C10.4 18.8572 12.7476 18.5949 14.5106 17.5551C15.7632 16.8151 17.0159 15.3444 17.6005 13.9205C17.916 13.1617 18.2314 11.7753 18.2314 11.1102C18.2314 10.6793 18.2593 10.623 18.7789 10.1078C19.0851 9.80806 19.3728 9.48019 19.4284 9.38651C19.5212 9.20852 19.5119 9.20852 19.0387 9.36777C18.25 9.64881 18.1387 9.61133 18.5284 9.18979C18.816 8.89002 19.1593 8.3467 19.1593 8.18745C19.1593 8.15934 19.0202 8.20618 18.8624 8.29049C18.6954 8.38417 18.3242 8.52468 18.0459 8.60899L17.5448 8.76824L17.0901 8.45911C16.8396 8.29049 16.487 8.10314 16.3014 8.04693C15.8282 7.91578 15.1044 7.93452 14.6776 8.0844C13.5177 8.50595 12.7847 9.5926 12.8682 10.7823Z" fill="white"/>
</svg>
