<svg width="27" height="27" viewBox="0 0 27 27" fill="none" xmlns="http://www.w3.org/2000/svg">
<path opacity="0.1" fill-rule="evenodd" clip-rule="evenodd" d="M0 13.2655C0 5.93917 5.93917 0 13.2655 0C20.5918 0 26.531 5.93917 26.531 13.2655C26.531 20.5918 20.5918 26.531 13.2655 26.531C5.93917 26.531 0 20.5918 0 13.2655Z" fill="white"/>
<path fill-rule="evenodd" clip-rule="evenodd" d="M18.7937 8.70524C19.4026 8.87231 19.8821 9.36458 20.0448 9.98972C20.3405 11.1227 20.3405 13.4867 20.3405 13.4867C20.3405 13.4867 20.3405 15.8506 20.0448 16.9837C19.8821 17.6089 19.4026 18.1011 18.7937 18.2683C17.6904 18.5718 13.2656 18.5718 13.2656 18.5718C13.2656 18.5718 8.84074 18.5718 7.73729 18.2683C7.12844 18.1011 6.64896 17.6089 6.48623 16.9837C6.19061 15.8506 6.19061 13.4867 6.19061 13.4867C6.19061 13.4867 6.19061 11.1227 6.48623 9.98972C6.64896 9.36458 7.12844 8.87231 7.73729 8.70524C8.84074 8.40161 13.2656 8.40161 13.2656 8.40161C13.2656 8.40161 17.6904 8.40161 18.7937 8.70524ZM11.939 11.4969V15.9187L15.4765 13.7079L11.939 11.4969Z" fill="white"/>
</svg>
