<svg width="144" height="29" viewBox="0 0 144 29" fill="none" xmlns="http://www.w3.org/2000/svg">
<g clip-path="url(#clip0_2_776)">
<path d="M8.64132 12.0244L14.2076 6.4675L19.7768 12.0274L23.0157 8.79383L14.2076 0L5.40247 8.79089L8.64132 12.0244Z" fill="white" fill-opacity="0.5"/>
<path d="M6.35403 14.3072L3.11523 11.0737L-0.123722 14.3074L3.11508 17.5408L6.35403 14.3072Z" fill="white" fill-opacity="0.5"/>
<path d="M8.64131 16.5908L14.2076 22.1478L19.7766 16.5881L23.0173 19.8199L23.0157 19.8217L14.2076 28.6153L5.40223 19.8246L5.39771 19.8201L8.64131 16.5908Z" fill="white" fill-opacity="0.5"/>
<path d="M25.3002 17.5422L28.5392 14.3086L25.3004 11.0751L22.0614 14.3088L25.3002 17.5422Z" fill="white" fill-opacity="0.5"/>
<path d="M17.4928 14.3059H17.4941L14.2075 11.0247L11.7787 13.4495H11.7784L11.4995 13.7282L10.9238 14.3029L10.9193 14.3075L10.9238 14.3122L14.2075 17.5905L17.4941 14.3093L17.4957 14.3075L17.4928 14.3059Z" fill="white" fill-opacity="0.5"/>
<path d="M33.5884 6.93384H40.6327C42.3811 6.93384 43.7031 7.38179 44.5992 8.27769C45.2926 8.97154 45.6392 9.83151 45.6392 10.8574V10.9008C45.6392 11.3343 45.5855 11.7173 45.4775 12.0496C45.3698 12.3823 45.2258 12.6817 45.0458 12.9491C44.8663 13.2167 44.6576 13.4515 44.4203 13.6536C44.1829 13.8561 43.9277 14.0296 43.6545 14.1738C44.5333 14.5065 45.2251 14.9579 45.7295 15.5288C46.2337 16.0999 46.4861 16.8912 46.4861 17.9026V17.9457C46.4861 18.6396 46.3525 19.2464 46.0851 19.7669C45.8178 20.287 45.4347 20.7207 44.936 21.0676C44.4373 21.4145 43.8376 21.6744 43.1367 21.848C42.4359 22.0214 41.6591 22.1079 40.8068 22.1079H33.5884V6.93384ZM39.9284 13.0684C40.6669 13.0684 41.2532 12.9423 41.6872 12.6892C42.1214 12.4363 42.3385 12.0279 42.3385 11.4644V11.421C42.3385 10.9155 42.1502 10.529 41.7739 10.2614C41.3974 9.99401 40.8546 9.86022 40.1455 9.86022H36.8451V13.0684H39.9284ZM40.8188 19.1818C41.557 19.1818 42.1357 19.0484 42.5558 18.7808C42.9756 18.5135 43.1856 18.0978 43.1856 17.5342V17.491C43.1856 16.9852 42.99 16.5842 42.5993 16.2877C42.2083 15.9919 41.5788 15.8436 40.7101 15.8436H36.8451V19.182H40.8188V19.1818Z" fill="white" fill-opacity="0.5"/>
<path d="M50.6814 6.93384H54.0255V22.1084H50.6814V6.93384Z" fill="white" fill-opacity="0.5"/>
<path d="M59.0903 6.93384H62.1732L69.2954 16.2771V6.93384H72.5959V22.1084H69.7516L62.3905 12.4618V22.1084H59.0903V6.93384Z" fill="white" fill-opacity="0.5"/>
<path d="M82.7197 6.82544H85.8028L92.3172 22.1082H88.8211L87.4314 18.705H81.0042L79.6146 22.1082H76.2051L82.7197 6.82544ZM86.2372 15.7565L84.2177 10.8358L82.1988 15.7565H86.2372Z" fill="white" fill-opacity="0.5"/>
<path d="M95.9269 6.93384H99.0104L106.132 16.2771V6.93384H109.433V22.1084H106.588L99.2273 12.4618V22.1084H95.9269V6.93384Z" fill="white" fill-opacity="0.5"/>
<path d="M121.467 22.3682C120.352 22.3682 119.317 22.1657 118.362 21.7613C117.406 21.357 116.581 20.804 115.886 20.1029C115.191 19.402 114.648 18.5746 114.258 17.6208C113.867 16.6668 113.672 15.648 113.672 14.564V14.5209C113.672 13.4369 113.867 12.4219 114.258 11.4752C114.649 10.5286 115.191 9.6976 115.886 8.98228C116.581 8.26696 117.414 7.70306 118.383 7.29127C119.353 6.87948 120.425 6.67358 121.597 6.67358C122.306 6.67358 122.954 6.73167 123.54 6.84693C124.126 6.96288 124.658 7.12154 125.136 7.32381C125.614 7.52632 126.055 7.77199 126.461 8.06083C126.866 8.35013 127.242 8.6679 127.59 9.01482L125.462 11.4643C124.868 10.9298 124.264 10.5103 123.649 10.207C123.033 9.90372 122.342 9.75184 121.575 9.75184C120.938 9.75184 120.348 9.87479 119.806 10.1205C119.263 10.3661 118.796 10.7056 118.405 11.1391C118.014 11.5726 117.71 12.075 117.493 12.6457C117.276 13.2168 117.168 13.8273 117.168 14.4775V14.5207C117.168 15.1709 117.276 15.7854 117.493 16.3631C117.71 16.9414 118.01 17.447 118.394 17.8805C118.778 18.314 119.241 18.6575 119.784 18.9104C120.327 19.1636 120.924 19.2897 121.575 19.2897C122.444 19.2897 123.178 19.1308 123.779 18.8128C124.38 18.4953 124.977 18.0616 125.57 17.5121L127.698 19.6583C127.307 20.0776 126.902 20.4534 126.483 20.7854C126.063 21.1181 125.603 21.4033 125.103 21.642C124.604 21.8802 124.057 22.0613 123.464 22.1838C122.87 22.3065 122.205 22.3682 121.467 22.3682Z" fill="white" fill-opacity="0.5"/>
<path d="M131.634 6.93384H143.077V9.90384H134.935V12.9821H142.1V15.9519H134.935V19.1386H143.186V22.1084H131.634V6.93384Z" fill="white" fill-opacity="0.5"/>
</g>
<defs>
<clipPath id="clip0_2_776">
<rect width="143.077" height="28.6154" fill="white"/>
</clipPath>
</defs>
</svg>
