<svg width="266" height="54" viewBox="0 0 266 54" fill="none" xmlns="http://www.w3.org/2000/svg">
<g clip-path="url(#clip0_2_434)">
<path d="M16.0238 22.2971L26.3454 11.9928L36.6726 22.3026L42.6784 16.3066L26.3454 0L10.0179 16.3011L16.0238 22.2971Z" fill="white" fill-opacity="0.5"/>
<path d="M11.7823 26.5301L5.77655 20.5342L-0.229511 26.5304L5.77626 32.5263L11.7823 26.5301Z" fill="white" fill-opacity="0.5"/>
<path d="M16.0237 30.7648L26.3454 41.0691L36.6721 30.7598L42.6813 36.7524L42.6784 36.7558L26.3454 53.0619L10.0174 36.7612L10.009 36.7528L16.0237 30.7648Z" fill="white" fill-opacity="0.5"/>
<path d="M46.9148 32.5291L52.9208 26.533L46.9151 20.5371L40.909 26.5333L46.9148 32.5291Z" fill="white" fill-opacity="0.5"/>
<path d="M32.4373 26.5278H32.4398L26.3454 20.4434L21.8415 24.9398H21.8411L21.3239 25.4566L20.2564 26.5223L20.248 26.5307L20.2564 26.5395L26.3454 32.6185L32.4398 26.5341L32.4427 26.5307L32.4373 26.5278Z" fill="white" fill-opacity="0.5"/>
<path d="M62.2835 12.8574H75.346C78.588 12.8574 81.0395 13.6881 82.701 15.3494C83.9868 16.636 84.6295 18.2306 84.6295 20.1329V20.2134C84.6295 21.0172 84.53 21.7276 84.3298 22.3436C84.13 22.9605 83.863 23.5158 83.5293 24.0116C83.1964 24.5078 82.8093 24.9433 82.3694 25.318C81.9291 25.6935 81.456 26.0153 80.9493 26.2827C82.5789 26.8996 83.8617 27.7366 84.797 28.7952C85.7319 29.8542 86.1999 31.3215 86.1999 33.1969V33.277C86.1999 34.5636 85.9523 35.6889 85.4565 36.6541C84.9607 37.6184 84.2505 38.4226 83.3257 39.0659C82.4009 39.7093 81.2889 40.1912 79.9892 40.5131C78.6896 40.8345 77.2493 40.995 75.6688 40.995H62.2835V12.8574ZM74.04 24.2329C75.4094 24.2329 76.4966 23.9991 77.3013 23.5297C78.1065 23.0607 78.5091 22.3034 78.5091 21.2586V21.1781C78.5091 20.2406 78.1598 19.524 77.4621 19.0278C76.764 18.532 75.7574 18.2839 74.4426 18.2839H68.3225V24.2329H74.04ZM75.691 35.569C77.06 35.569 78.1329 35.3218 78.912 34.8255C79.6903 34.3298 80.0799 33.559 80.0799 32.5138V32.4338C80.0799 31.4958 79.7172 30.7524 78.9926 30.2025C78.2677 29.6539 77.1003 29.379 75.4895 29.379H68.3225V35.5694H75.691V35.569Z" fill="white" fill-opacity="0.5"/>
<path d="M93.9794 12.8574H100.18V40.9959H93.9794V12.8574Z" fill="white" fill-opacity="0.5"/>
<path d="M109.572 12.8574H115.289L128.496 30.1828V12.8574H134.616V40.9959H129.342L115.692 23.1081V40.9959H109.572V12.8574Z" fill="white" fill-opacity="0.5"/>
<path d="M153.389 12.6567H159.106L171.185 40.9959H164.703L162.126 34.6852H150.208L147.631 40.9959H141.308L153.389 12.6567ZM159.911 29.2177L156.166 20.0932L152.423 29.2177H159.911Z" fill="white" fill-opacity="0.5"/>
<path d="M177.879 12.8574H183.597L196.803 30.1828V12.8574H202.923V40.9959H197.649L183.999 23.1081V40.9959H177.879V12.8574Z" fill="white" fill-opacity="0.5"/>
<path d="M225.239 41.478C223.171 41.478 221.252 41.1025 219.481 40.3528C217.709 39.603 216.179 38.5775 214.891 37.2775C213.602 35.9778 212.595 34.4435 211.871 32.6749C211.146 30.9059 210.784 29.0167 210.784 27.0067V26.9266C210.784 24.9167 211.146 23.0345 211.871 21.2789C212.595 19.5237 213.602 17.9827 214.891 16.6563C216.178 15.3299 217.722 14.2842 219.52 13.5206C221.318 12.757 223.306 12.3752 225.48 12.3752C226.794 12.3752 227.995 12.483 229.083 12.6967C230.17 12.9117 231.156 13.2059 232.043 13.581C232.929 13.9565 233.747 14.412 234.499 14.9476C235.249 15.4841 235.948 16.0733 236.592 16.7167L232.647 21.2588C231.545 20.2676 230.425 19.4898 229.285 18.9274C228.143 18.365 226.862 18.0833 225.439 18.0833C224.258 18.0833 223.164 18.3113 222.158 18.7669C221.152 19.2224 220.286 19.8519 219.561 20.6557C218.837 21.4595 218.273 22.3912 217.869 23.4494C217.468 24.5085 217.267 25.6404 217.267 26.8462V26.9262C217.267 28.132 217.468 29.2715 217.869 30.3427C218.273 31.4152 218.829 32.3527 219.541 33.1565C220.252 33.9603 221.111 34.5973 222.117 35.0663C223.125 35.5357 224.232 35.7695 225.439 35.7695C227.05 35.7695 228.411 35.4749 229.526 34.8853C230.64 34.2964 231.747 33.4922 232.848 32.4734L236.794 36.4531C236.069 37.2305 235.316 37.9275 234.539 38.5431C233.76 39.16 232.908 39.6889 231.982 40.1315C231.056 40.5732 230.042 40.9089 228.942 41.1361C227.841 41.3636 226.607 41.478 225.239 41.478Z" fill="white" fill-opacity="0.5"/>
<path d="M244.091 12.8574H265.31V18.3647H250.212V24.0728H263.499V29.5797H250.212V35.489H265.513V40.9959H244.091V12.8574Z" fill="white" fill-opacity="0.5"/>
</g>
<defs>
<clipPath id="clip0_2_434">
<rect width="265.31" height="53.062" fill="white"/>
</clipPath>
</defs>
</svg>
