<svg width="197" height="32" viewBox="0 0 197 32" fill="none" xmlns="http://www.w3.org/2000/svg">
<g clip-path="url(#clip0_2_437)">
<path d="M16.7317 0.587646H35.1192C35.108 0.826319 35.024 1.05618 34.8779 1.24738C34.2555 2.295 33.6953 3.38539 33.0837 4.43301C32.2185 5.93725 31.4093 7.46899 30.5301 8.96712C29.973 10.0453 29.3443 11.0899 28.7498 12.1497C25.1769 12.1497 21.604 12.1497 18.0311 12.1497C17.8443 12.1497 17.6592 12.1589 17.4724 12.1696C17.3168 12.5727 17.0585 12.9255 16.85 13.3042C16.5776 13.7379 16.3567 14.2007 16.0874 14.6344C15.8027 15.2177 15.409 15.74 15.1226 16.3219C14.5313 17.3069 13.9789 18.3072 13.4 19.3029C12.7962 20.321 12.2059 21.3533 11.6291 22.3999C11.385 22.7709 11.1601 23.1537 10.9553 23.5468C9.74613 25.6115 8.57591 27.6946 7.36523 29.7577C7.26254 29.9795 7.12727 30.1853 6.96374 30.3686C4.89406 30.3549 2.82438 30.3686 0.754702 30.3686C0.499789 30.3734 0.246388 30.4082 -3.05176e-05 30.4724C-3.05176e-05 29.9105 0.382782 29.4599 0.641103 28.9881C0.952333 28.3543 1.36783 27.7663 1.68061 27.131C4.16111 22.7756 6.61516 18.4049 9.08788 14.0464C9.6481 13.0996 10.1289 12.1329 10.6923 11.2044C11.3957 9.98268 12.0508 8.73347 12.7837 7.52549C13.0172 7.02 13.3315 6.55728 13.5883 6.06401C14.5002 4.47119 15.395 2.86921 16.3037 1.27639C16.4116 1.02764 16.5557 0.795622 16.7317 0.587646Z" fill="white" fill-opacity="0.5"/>
<path d="M38.0384 7.00025C39.2631 4.90042 40.4458 2.77768 41.6876 0.687012H48.3293C48.426 0.691814 48.522 0.70666 48.6156 0.731299C48.3946 1.05964 48.2094 1.40783 48.0149 1.74991C46.4131 4.57106 44.816 7.39375 43.2235 10.218C42.5544 11.3679 41.9319 12.5438 41.2535 13.6876L41.1865 13.7106L41.1741 13.8541C38.0514 19.3518 34.9391 24.8537 31.8372 30.3596C25.7402 30.3657 19.6427 30.3657 13.5446 30.3596C13.8917 29.6479 14.3025 28.9683 14.6884 28.2765C16.4251 25.1428 18.2069 22.0366 19.9186 18.9029C23.6648 18.8968 27.411 18.8968 31.1572 18.9029C33.4711 14.9475 35.7353 10.9617 38.0322 7.00025H38.0384Z" fill="white" fill-opacity="0.5"/>
<path d="M106.582 0.606201V30.7216H111.9V9.54461L121.599 23.4921L131.221 9.21322V30.7216H136.694V0.606201H130.807L121.638 14.5079L112.366 0.606201H106.582Z" fill="white" fill-opacity="0.5"/>
<path d="M81.7103 8.37354H85.1851V30.9754H81.7103V8.37354Z" fill="white" fill-opacity="0.5"/>
<path d="M81.4114 0H85.4839V3.79191H81.4114V0Z" fill="white" fill-opacity="0.5"/>
<path d="M91.8252 1.89673H95.4557V8.37337H102.614V11.53H95.4557V24.9567C95.4494 25.4741 95.5717 25.9851 95.812 26.4457C96.4267 27.591 98.0964 28.9502 102.614 27.362V30.288C102.614 30.288 98.4902 32.5787 94.7554 30.4926C94.7554 30.4926 92.9005 29.7199 92.1208 27.1115C91.9183 26.4128 91.8188 25.6892 91.8252 24.9628V11.4796L88.7642 11.53V8.37337H91.8501L91.8252 1.89673Z" fill="white" fill-opacity="0.5"/>
<path d="M142.296 0.606201V30.9247H165.378V26.0378H147.924V17.9943H163.304V13.1838H147.898V5.52363H165.198V0.606201H142.296Z" fill="white" fill-opacity="0.5"/>
<path d="M167.544 0.606201H174.119L181.666 11.2504L189.154 0.606201H195.729L184.992 15.3921L196.398 30.8988H189.473L181.693 19.5734L173.535 30.9247H166.961L178.204 15.5265L167.544 0.606201Z" fill="white" fill-opacity="0.5"/>
<path d="M71.0755 15.1948C71.0755 15.1948 76.1594 13.3119 75.8482 7.89049C75.8482 7.89049 75.8062 2.67679 69.8244 1.06718C68.8298 0.805654 67.804 0.67622 66.7743 0.682336H52.4282L52.4671 30.7977H67.9119C67.9119 30.7977 76.95 30.6069 77.5864 22.7038C77.5864 22.7038 78.2338 17.1801 71.0755 15.1948ZM56.1365 3.79161H65.2929C72.476 3.76718 72.2691 8.73042 72.2691 8.73042C72.3764 14.3931 65.7846 14.2786 65.7846 14.2786H56.1365V3.79161ZM67.3407 27.6152H56.1365V17.1297H66.849C74.0322 17.1038 73.8252 22.067 73.8252 22.067C73.9326 27.7297 67.3407 27.6152 67.3407 27.6152Z" fill="white" fill-opacity="0.5"/>
</g>
<defs>
<clipPath id="clip0_2_437">
<rect width="196.398" height="31.3692" fill="white"/>
</clipPath>
</defs>
</svg>
