<svg width="106" height="17" viewBox="0 0 106 17" fill="none" xmlns="http://www.w3.org/2000/svg">
<g clip-path="url(#clip0_2_792)">
<path d="M9.0231 0.317139H18.9391C18.9331 0.44585 18.8878 0.569811 18.809 0.672918C18.4734 1.23788 18.1712 1.82591 17.8414 2.39087C17.3748 3.20208 16.9385 4.02812 16.4643 4.83603C16.1639 5.41747 15.8248 5.98079 15.5043 6.55234C13.5775 6.55234 11.6506 6.55234 9.72384 6.55234C9.62313 6.55234 9.52327 6.55728 9.42256 6.56305C9.33864 6.78047 9.19934 6.97071 9.08688 7.17495C8.94002 7.40884 8.82086 7.65838 8.67567 7.89228C8.5221 8.20688 8.30978 8.48854 8.15537 8.80231C7.83647 9.33351 7.53855 9.87295 7.22637 10.4099C6.90076 10.959 6.58242 11.5157 6.27136 12.0801C6.13972 12.2801 6.01844 12.4866 5.90798 12.6986C5.25592 13.8121 4.62484 14.9354 3.97194 16.048C3.91657 16.1676 3.84362 16.2786 3.75543 16.3775C2.63929 16.37 1.52315 16.3775 0.407013 16.3775C0.269543 16.38 0.132889 16.3988 0 16.4335C0 16.1304 0.206444 15.8874 0.345751 15.633C0.513592 15.2912 0.737659 14.9741 0.906339 14.6315C2.24403 12.2827 3.56745 9.92566 4.90094 7.5752C5.20305 7.0646 5.46237 6.54328 5.76616 6.04255C6.14548 5.3837 6.49878 4.71003 6.89405 4.05859C7.01993 3.78599 7.18945 3.53645 7.32791 3.27044C7.81969 2.41146 8.30223 1.54754 8.79232 0.688566C8.85047 0.554418 8.92821 0.429296 9.0231 0.317139Z" fill="white" fill-opacity="0.5"/>
<path d="M20.5132 3.77497C21.1737 2.64257 21.8115 1.49782 22.4812 0.370361H26.0629C26.1151 0.372951 26.1668 0.380957 26.2173 0.394245C26.0981 0.571311 25.9983 0.759083 25.8934 0.943562C25.0296 2.46496 24.1683 3.98718 23.3095 5.51022C22.9486 6.13037 22.6129 6.76451 22.247 7.38136L22.211 7.39371L22.2042 7.47113C20.5202 10.436 18.8418 13.403 17.169 16.3722C13.881 16.3755 10.5928 16.3755 7.3042 16.3722C7.49134 15.9884 7.71289 15.6219 7.92101 15.2489C8.85756 13.5589 9.81845 11.8838 10.7416 10.1938C12.7618 10.1905 14.7821 10.1905 16.8023 10.1938C18.0502 8.0608 19.2712 5.9113 20.5099 3.77497H20.5132Z" fill="white" fill-opacity="0.5"/>
<path d="M57.4779 0.32666V16.5673H60.3455V5.14698L65.5762 12.6686L70.765 4.96827V16.5673H73.7165V0.32666H70.5418L65.5972 7.82356L60.5972 0.32666H57.4779Z" fill="white" fill-opacity="0.5"/>
<path d="M44.0647 4.51611H45.9386V16.7049H44.0647V4.51611Z" fill="white" fill-opacity="0.5"/>
<path d="M43.9033 0.000488281H46.0995V2.0454H43.9033V0.000488281Z" fill="white" fill-opacity="0.5"/>
<path d="M49.5196 1.02271H51.4775V4.51544H55.3378V6.21775H51.4775V13.4585C51.4741 13.7375 51.5401 14.0131 51.6696 14.2615C52.0011 14.8792 52.9016 15.6121 55.3378 14.7556V16.3336C55.3378 16.3336 53.1139 17.5689 51.0998 16.4439C51.0998 16.4439 50.0995 16.0272 49.6791 14.6206C49.5698 14.2438 49.5162 13.8536 49.5196 13.4618V6.19057L47.8689 6.21775V4.51544H49.533L49.5196 1.02271Z" fill="white" fill-opacity="0.5"/>
<path d="M76.7373 0.32666V16.6769H89.1852V14.0415H79.7727V9.70376H88.0665V7.10953H79.7584V2.97854H89.0878V0.32666H76.7373Z" fill="white" fill-opacity="0.5"/>
<path d="M90.3532 0.32666H93.8988L97.9689 6.0669L102.007 0.32666H105.553L99.7623 8.30041L105.914 16.6629H102.179L97.9832 10.5553L93.5841 16.6769H90.0385L96.1017 8.37288L90.3532 0.32666Z" fill="white" fill-opacity="0.5"/>
<path d="M38.3297 8.19436C38.3297 8.19436 41.0714 7.1789 40.9036 4.25525C40.9036 4.25525 40.8809 1.44361 37.655 0.57557C37.1186 0.434535 36.5654 0.364733 36.0102 0.368032H28.2736L28.2945 16.6087H36.6236C36.6236 16.6087 41.4977 16.5058 41.8409 12.2438C41.8409 12.2438 42.1901 9.26499 38.3297 8.19436ZM30.2734 2.04481H35.2112C39.085 2.03163 38.9734 4.70821 38.9734 4.70821C39.0313 7.76199 35.4764 7.70022 35.4764 7.70022H30.2734V2.04481ZM36.3156 14.8924H30.2734V9.23781H36.0504C39.9242 9.22381 39.8126 11.9004 39.8126 11.9004C39.8705 14.9542 36.3156 14.8924 36.3156 14.8924Z" fill="white" fill-opacity="0.5"/>
</g>
<defs>
<clipPath id="clip0_2_792">
<rect width="105.914" height="16.9168" fill="white"/>
</clipPath>
</defs>
</svg>
