<svg width="350" height="54" viewBox="0 0 350 54" fill="none" xmlns="http://www.w3.org/2000/svg">
<path d="M93.8633 35.9398V27.4021C93.8633 22.9841 90.2947 19.4106 85.8329 19.4106H85.4856C83.7508 19.4106 82.0156 20.0061 81.1731 21.0486V10.9223C81.1731 9.68063 80.2311 9.03613 79.2891 9.03613C78.3471 9.03613 77.4055 9.68104 77.4055 10.9223V42.1444C77.4055 43.3358 78.3475 43.9314 79.2891 43.9314C80.132 43.9314 80.9746 43.4346 81.1233 42.4432C81.8171 43.1375 83.2548 43.9314 85.3862 43.9314H85.8325C90.2445 43.9314 93.8633 40.3578 93.8633 35.9398ZM90.0962 35.9398C90.0962 38.2729 88.2126 40.1595 85.8329 40.1595H85.3866C83.1561 40.1595 81.1735 38.6701 81.1735 36.2378V27.005C81.1735 24.7213 83.1565 23.1829 85.3866 23.1829H85.8329C88.2126 23.1829 90.0962 25.0694 90.0962 27.4021V35.9398ZM109.677 42.0448C109.677 41.1019 109.082 40.1595 107.793 40.1595C106.256 40.1093 105.067 38.9182 105.067 37.379V10.9223C105.067 9.68063 104.125 9.03613 103.183 9.03613C102.241 9.03613 101.299 9.68104 101.299 10.9223V37.379C101.299 41.0023 104.174 43.9314 107.793 43.9314C109.082 43.9314 109.677 42.9881 109.677 42.0448ZM131.289 35.9398V27.4021C131.289 22.9841 127.72 19.4106 123.308 19.4106H122.812C118.4 19.4106 114.831 22.9841 114.831 27.4021V35.9398C114.831 40.3578 118.4 43.9314 122.812 43.9314H123.308C127.72 43.9314 131.289 40.3578 131.289 35.9398ZM127.522 35.9398C127.522 38.2729 125.638 40.1595 123.308 40.1595H122.862C120.483 40.1595 118.599 38.2729 118.599 35.9398V27.4021C118.599 25.0694 120.483 23.1829 122.812 23.1829H123.308C125.638 23.1829 127.522 25.0694 127.522 27.4021V35.9398ZM154.14 35.9398C154.14 34.6496 153.199 34.0043 152.257 34.0043C151.365 34.0043 150.423 34.6496 150.373 35.9398C150.274 38.2729 148.489 40.1595 146.16 40.1595H145.713C143.334 40.1595 141.451 38.2729 141.451 35.9398V27.4021C141.451 25.0694 143.334 23.1829 145.664 23.1829H146.159C148.489 23.1829 150.274 24.92 150.373 27.4515C150.422 28.6932 151.365 29.2887 152.256 29.2887C153.198 29.2887 154.14 28.643 154.14 27.4021C154.14 22.9841 150.522 19.4106 146.159 19.4106H145.664C141.301 19.4106 137.683 22.9347 137.683 27.4021V35.9398C137.683 40.3578 141.252 43.9314 145.664 43.9314H146.159C150.571 43.9314 154.14 40.3578 154.14 35.9398ZM177.884 42.0448C177.884 41.7472 177.835 41.4003 177.637 41.1019L170.845 29.1887L176.992 22.6367C177.389 22.2396 177.537 21.7931 177.537 21.3461C177.537 20.3526 176.694 19.4102 175.605 19.4102C175.158 19.4102 174.663 19.6081 174.266 20.0555L164.847 30.0822V10.9223C164.847 9.68063 163.905 9.03613 162.963 9.03613C162.022 9.03613 161.08 9.68104 161.08 10.9223V42.0448C161.08 43.286 162.022 43.9314 162.963 43.9314C163.905 43.9314 164.847 43.286 164.847 42.0448V35.641L168.168 32.0675L174.365 42.9379C174.761 43.6338 175.356 43.9314 175.951 43.9314C177.092 43.9314 177.884 43.0375 177.884 42.0448ZM199.298 35.9398C199.298 34.6496 198.356 34.0043 197.414 34.0043C196.522 34.0043 195.58 34.6496 195.53 35.9398C195.431 38.2729 193.647 40.1595 191.318 40.1595H190.871C188.491 40.1595 186.608 38.2729 186.608 35.9398V27.4021C186.608 25.0694 188.491 23.1829 190.822 23.1829H191.318C193.647 23.1829 195.431 24.92 195.53 27.4515C195.58 28.6932 196.523 29.2887 197.414 29.2887C198.356 29.2887 199.298 28.643 199.298 27.4021C199.298 22.9841 195.68 19.4106 191.318 19.4106H190.822C186.459 19.4106 182.841 22.9347 182.841 27.4021V35.9398C182.841 40.3578 186.41 43.9314 190.822 43.9314H191.318C195.729 43.9314 199.298 40.3578 199.298 35.9398ZM222.696 42.0448V27.4021C222.696 22.9841 219.126 19.4106 214.714 19.4106H214.318C212.583 19.4106 210.847 20.0061 210.004 20.8996V10.9223C210.004 9.68063 209.063 9.03613 208.122 9.03613C207.18 9.03613 206.238 9.68104 206.238 10.9223V42.0448C206.238 43.286 207.18 43.9314 208.122 43.9314C209.063 43.9314 210.004 43.286 210.004 42.0448V27.154C210.004 24.5723 212.236 23.1829 214.517 23.1829C216.697 23.1829 218.927 24.5233 218.927 27.4021V42.0448C218.927 43.286 219.869 43.9314 220.811 43.9314C221.753 43.9314 222.696 43.286 222.696 42.0448ZM247.48 41.9966C247.48 41.2015 246.984 40.4072 245.894 40.2089C245.002 40.0603 244.605 39.4635 244.605 38.5705V27.054C244.605 22.7853 241.235 19.4102 236.822 19.4102H236.475C233.848 19.4102 230.675 20.4526 229.089 24.0266C228.941 24.3241 228.891 24.6217 228.891 24.9201C228.891 25.9625 229.833 26.6572 230.775 26.6572C231.42 26.6572 232.064 26.3597 232.46 25.6641C233.402 24.0262 234.443 23.1825 236.476 23.1825H236.823C239.004 23.1825 240.838 24.2747 240.838 27.2025C240.838 27.4511 240.838 27.8483 240.69 28.0466C239.501 29.7348 228.495 28.3442 228.148 36.1872V36.7827C228.148 41.3999 232.114 43.931 236.129 43.931H236.575C238.607 43.931 240.491 43.1865 241.929 41.9464C242.574 42.8893 243.615 43.6338 245.3 43.8816C245.399 43.931 245.547 43.931 245.647 43.931C246.836 43.9314 247.48 42.9881 247.48 41.9966ZM240.837 35.9398C240.837 38.2729 238.904 40.1595 236.575 40.1595H236.129C233.601 40.1595 231.915 38.819 231.915 36.6843V36.2868C232.064 32.812 237.17 33.0112 240.837 32.0185V35.9398ZM257.196 42.0448V21.2967C257.196 20.0555 256.253 19.4106 255.312 19.4106C254.371 19.4106 253.429 20.0559 253.429 21.2967V42.0448C253.429 43.286 254.371 43.9314 255.312 43.9314C256.253 43.9314 257.196 43.286 257.196 42.0448ZM281.584 42.0448V27.4021C281.584 21.9416 277.866 19.4106 273.653 19.4106H273.207C271.471 19.4106 269.836 20.0061 268.943 20.8996C268.746 19.9061 267.902 19.4106 267.06 19.4106C266.068 19.4106 265.126 20.1053 265.126 21.2967V42.0448C265.126 43.286 266.068 43.9314 267.01 43.9314C267.952 43.9314 268.894 43.286 268.894 42.0448V27.4021C268.894 25.0694 270.827 23.1829 273.156 23.1829H273.603C275.982 23.1829 277.866 25.0694 277.866 27.4021V42.0448C277.866 43.286 278.808 43.9314 279.75 43.9314C280.692 43.9314 281.584 43.286 281.584 42.0448ZM301.036 42.0448V21.2967C301.036 20.0555 300.094 19.4106 299.152 19.4106C298.211 19.4106 297.27 20.0559 297.27 21.2967V42.0448C297.27 43.286 298.212 43.9314 299.152 43.9314C300.095 43.9314 301.036 43.286 301.036 42.0448ZM324.879 35.9398V27.4021C324.879 22.9841 321.31 19.4106 316.899 19.4106H316.403C311.991 19.4106 308.422 22.9841 308.422 27.4021V35.9398C308.422 40.3578 311.991 43.9314 316.403 43.9314H316.899C321.31 43.9314 324.879 40.3578 324.879 35.9398ZM321.112 35.9398C321.112 38.2729 319.229 40.1595 316.899 40.1595H316.452C314.072 40.1595 312.189 38.2729 312.189 35.9398V27.4021C312.189 25.0694 314.072 23.1829 316.403 23.1829H316.899C319.229 23.1829 321.112 25.0694 321.112 27.4021V35.9398Z" fill="white" fill-opacity="0.5"/>
<path d="M40.0781 25.2722C38.9303 25.2722 37.9968 26.2073 37.9968 27.3563C37.9968 28.5053 38.9307 29.44 40.0781 29.44C41.2255 29.44 42.1598 28.5053 42.1598 27.3563C42.1598 26.2073 41.2259 25.2722 40.0781 25.2722Z" fill="white" fill-opacity="0.5"/>
<path d="M49.7015 19.49C48.5537 19.49 47.6211 20.4251 47.6211 21.5741C47.6211 22.7235 48.5541 23.6578 49.7015 23.6578C50.849 23.6578 51.7836 22.7231 51.7836 21.5741C51.784 20.4251 50.8494 19.49 49.7015 19.49Z" fill="white" fill-opacity="0.5"/>
<path d="M59.3254 13.708C58.1779 13.708 57.2441 14.6427 57.2441 15.7917C57.2441 16.9411 58.1779 17.8771 59.3254 17.8771C60.4736 17.8771 61.4066 16.9415 61.4066 15.7917C61.4066 14.6427 60.4736 13.708 59.3254 13.708Z" fill="white" fill-opacity="0.5"/>
<path d="M30.4541 7.92554C29.3066 7.92554 28.3728 8.86065 28.3728 10.0101C28.3728 11.1591 29.3066 12.0938 30.4541 12.0938C31.6019 12.0938 32.5358 11.1591 32.5358 10.0101C32.5358 8.86065 31.6023 7.92554 30.4541 7.92554Z" fill="white" fill-opacity="0.5"/>
<path d="M40.0783 2.14355C38.9305 2.14355 37.9971 3.07908 37.9971 4.22808C37.9971 5.37748 38.9309 6.3126 40.0783 6.3126C41.2258 6.3126 42.16 5.37748 42.16 4.22808C42.16 3.07908 41.2262 2.14355 40.0783 2.14355Z" fill="white" fill-opacity="0.5"/>
<path d="M40.0781 13.708C38.9303 13.708 37.9968 14.6427 37.9968 15.7917C37.9968 16.9411 38.9307 17.8771 40.0781 17.8771C41.2255 17.8771 42.1598 16.9415 42.1598 15.7917C42.1598 14.6427 41.2259 13.708 40.0781 13.708Z" fill="white" fill-opacity="0.5"/>
<path d="M49.7015 7.92554C48.5537 7.92554 47.6211 8.86065 47.6211 10.0101C47.6211 11.1591 48.5541 12.0938 49.7015 12.0938C50.849 12.0938 51.7836 11.1591 51.7836 10.0101C51.784 8.86065 50.8494 7.92554 49.7015 7.92554Z" fill="white" fill-opacity="0.5"/>
<path d="M49.7015 31.0547C48.5537 31.0547 47.6211 31.9894 47.6211 33.138C47.6211 34.2874 48.5541 35.2221 49.7015 35.2221C50.849 35.2221 51.7836 34.2874 51.7836 33.138C51.784 31.9894 50.8494 31.0547 49.7015 31.0547Z" fill="white" fill-opacity="0.5"/>
<path d="M59.3254 25.2722C58.1779 25.2722 57.2441 26.2073 57.2441 27.3563C57.2441 28.5053 58.1779 29.44 59.3254 29.44C60.4736 29.44 61.4066 28.5053 61.4066 27.3563C61.4066 26.2073 60.4736 25.2722 59.3254 25.2722Z" fill="white" fill-opacity="0.5"/>
<path d="M49.7015 42.6184C48.5537 42.6184 47.6211 43.5531 47.6211 44.7025C47.6211 45.8515 48.5541 46.7862 49.7015 46.7862C50.849 46.7862 51.7836 45.8515 51.7836 44.7025C51.784 43.5531 50.8494 42.6184 49.7015 42.6184Z" fill="white" fill-opacity="0.5"/>
<path d="M59.3254 36.8362C58.1779 36.8362 57.2441 37.7709 57.2441 38.9203C57.2441 40.0693 58.1779 41.004 59.3254 41.004C60.4736 41.004 61.4066 40.0693 61.4066 38.9203C61.4066 37.7709 60.4736 36.8362 59.3254 36.8362Z" fill="white" fill-opacity="0.5"/>
<path d="M40.0781 48.4006C38.9303 48.4006 37.9968 49.3357 37.9968 50.4847C37.9968 51.6333 38.9307 52.5685 40.0781 52.5685C41.2255 52.5685 42.1598 51.6333 42.1598 50.4847C42.1598 49.3357 41.2259 48.4006 40.0781 48.4006Z" fill="white" fill-opacity="0.5"/>
<path d="M40.0781 36.8362C38.9303 36.8362 37.9968 37.7709 37.9968 38.9203C37.9968 40.0693 38.9307 41.004 40.0781 41.004C41.2255 41.004 42.1598 40.0693 42.1598 38.9203C42.1598 37.7709 41.2259 36.8362 40.0781 36.8362Z" fill="white" fill-opacity="0.5"/>
<path d="M30.4541 19.49C29.3067 19.49 28.3728 20.4251 28.3728 21.5741C28.3728 22.7235 29.3067 23.6578 30.4541 23.6578C31.6019 23.6578 32.5358 22.7231 32.5358 21.5741C32.5358 20.4251 31.6023 19.49 30.4541 19.49Z" fill="white" fill-opacity="0.5"/>
<path d="M30.4541 42.6184C29.3067 42.6184 28.3728 43.5531 28.3728 44.7025C28.3728 45.8515 29.3067 46.7862 30.4541 46.7862C31.6019 46.7862 32.5358 45.8515 32.5358 44.7025C32.5358 43.5531 31.6023 42.6184 30.4541 42.6184Z" fill="white" fill-opacity="0.5"/>
<path d="M30.4541 31.0547C29.3067 31.0547 28.3728 31.9894 28.3728 33.138C28.3728 34.2874 29.3067 35.2221 30.4541 35.2221C31.6019 35.2221 32.5358 34.2874 32.5358 33.138C32.5358 31.9894 31.6023 31.0547 30.4541 31.0547Z" fill="white" fill-opacity="0.5"/>
<path d="M20.8307 13.708C19.6828 13.708 18.7498 14.6427 18.7498 15.7917C18.7498 16.9411 19.6833 17.8771 20.8307 17.8771C21.9781 17.8771 22.9124 16.9415 22.9124 15.7917C22.9124 14.6427 21.9781 13.708 20.8307 13.708Z" fill="white" fill-opacity="0.5"/>
<path d="M20.8307 36.8362C19.6828 36.8362 18.7498 37.7709 18.7498 38.9203C18.7498 40.0693 19.6833 41.004 20.8307 41.004C21.9781 41.004 22.9124 40.0693 22.9124 38.9203C22.9124 37.7709 21.9781 36.8362 20.8307 36.8362Z" fill="white" fill-opacity="0.5"/>
<path d="M20.8307 25.2722C19.6828 25.2722 18.7498 26.2073 18.7498 27.3563C18.7498 28.5053 19.6833 29.44 20.8307 29.44C21.9781 29.44 22.9124 28.5053 22.9124 27.3563C22.9124 26.2073 21.9781 25.2722 20.8307 25.2722Z" fill="white" fill-opacity="0.5"/>
<path d="M255.281 8.93237C254.237 8.93237 253.387 9.78259 253.387 10.8283C253.387 11.8741 254.237 12.7247 255.281 12.7247C256.325 12.7247 257.175 11.8741 257.175 10.8283C257.175 9.78259 256.326 8.93237 255.281 8.93237Z" fill="white" fill-opacity="0.5"/>
<path d="M299.136 8.93237C298.092 8.93237 297.242 9.78259 297.242 10.8283C297.242 11.8741 298.092 12.7247 299.136 12.7247C300.181 12.7247 301.03 11.8741 301.03 10.8283C301.031 9.78259 300.181 8.93237 299.136 8.93237Z" fill="white" fill-opacity="0.5"/>
<path d="M289.202 40.2949C288.163 40.2949 287.318 41.1407 287.318 42.1807C287.318 43.2207 288.163 44.0672 289.202 44.0672C290.241 44.0672 291.085 43.2207 291.085 42.1807C291.085 41.1407 290.241 40.2949 289.202 40.2949Z" fill="white" fill-opacity="0.5"/>
</svg>
