<svg width="189" height="29" viewBox="0 0 189 29" fill="none" xmlns="http://www.w3.org/2000/svg">
<g clip-path="url(#clip0_2_791)">
<path d="M50.6187 19.3815V14.7772C50.6187 12.3947 48.6942 10.4675 46.288 10.4675H46.1007C45.1652 10.4675 44.2294 10.7887 43.7751 11.3509V5.88997C43.7751 5.22037 43.2671 4.8728 42.7591 4.8728C42.2511 4.8728 41.7433 5.22059 41.7433 5.88997V22.7275C41.7433 23.37 42.2513 23.6911 42.7591 23.6911C43.2137 23.6911 43.668 23.4233 43.7483 22.8886C44.1224 23.263 44.8977 23.6911 46.0471 23.6911H46.2878C48.6671 23.6911 50.6187 21.764 50.6187 19.3815ZM48.5871 19.3815C48.5871 20.6396 47.5713 21.657 46.288 21.657H46.0473C44.8445 21.657 43.7753 20.8538 43.7753 19.5421V14.5631C43.7753 13.3315 44.8447 12.5019 46.0473 12.5019H46.288C47.5713 12.5019 48.5871 13.5193 48.5871 14.7772V19.3815ZM59.1465 22.6738C59.1465 22.1653 58.8256 21.657 58.1308 21.657C57.3018 21.63 56.6604 20.9877 56.6604 20.1576V5.88997C56.6604 5.22037 56.1526 4.8728 55.6444 4.8728C55.1366 4.8728 54.6286 5.22059 54.6286 5.88997V20.1576C54.6286 22.1116 56.1792 23.6911 58.1308 23.6911C58.8256 23.6911 59.1465 23.1825 59.1465 22.6738ZM70.8015 19.3815V14.7772C70.8015 12.3947 68.877 10.4675 66.4977 10.4675H66.2304C63.8511 10.4675 61.9264 12.3947 61.9264 14.7772V19.3815C61.9264 21.764 63.8511 23.6911 66.2304 23.6911H66.4977C68.8768 23.6911 70.8015 21.764 70.8015 19.3815ZM68.77 19.3815C68.77 20.6396 67.7542 21.657 66.4977 21.657H66.257C64.9739 21.657 63.9581 20.6396 63.9581 19.3815V14.7772C63.9581 13.5193 64.9739 12.5019 66.2304 12.5019H66.4977C67.7542 12.5019 68.77 13.5193 68.77 14.7772V19.3815ZM83.125 19.3815C83.125 18.6857 82.6172 18.3377 82.1092 18.3377C81.6283 18.3377 81.12 18.6857 81.0934 19.3815C81.04 20.6396 80.0774 21.657 78.8212 21.657H78.5805C77.2974 21.657 76.2816 20.6396 76.2816 19.3815V14.7772C76.2816 13.5193 77.2974 12.5019 78.5539 12.5019H78.821C80.0774 12.5019 81.0398 13.4387 81.0932 14.8039C81.1198 15.4735 81.628 15.7946 82.109 15.7946C82.617 15.7946 83.1248 15.4464 83.1248 14.7772C83.1248 12.3947 81.1735 10.4675 78.8207 10.4675H78.5537C76.2012 10.4675 74.2496 12.368 74.2496 14.7772V19.3815C74.2496 21.764 76.1743 23.6911 78.5537 23.6911H78.8207C81.2003 23.6911 83.125 21.764 83.125 19.3815ZM95.9296 22.6738C95.9296 22.5133 95.903 22.3262 95.7962 22.1653L92.1336 15.7407L95.4485 12.2074C95.6626 11.9932 95.7426 11.7524 95.7426 11.5113C95.7426 10.9756 95.2878 10.4673 94.7002 10.4673C94.4595 10.4673 94.1922 10.5741 93.9781 10.8153L88.899 16.2225V5.88997C88.899 5.22037 88.391 4.8728 87.883 4.8728C87.3752 4.8728 86.8672 5.22059 86.8672 5.88997V22.6738C86.8672 23.3431 87.3752 23.6911 87.883 23.6911C88.391 23.6911 88.899 23.3431 88.899 22.6738V19.2203L90.6898 17.2932L94.0315 23.1554C94.2454 23.5307 94.5661 23.6911 94.8871 23.6911C95.5021 23.6911 95.9296 23.2091 95.9296 22.6738ZM107.478 19.3815C107.478 18.6857 106.97 18.3377 106.462 18.3377C105.981 18.3377 105.472 18.6857 105.446 19.3815C105.392 20.6396 104.43 21.657 103.174 21.657H102.933C101.65 21.657 100.634 20.6396 100.634 19.3815V14.7772C100.634 13.5193 101.65 12.5019 102.906 12.5019H103.174C104.43 12.5019 105.392 13.4387 105.446 14.8039C105.472 15.4735 105.981 15.7946 106.462 15.7946C106.97 15.7946 107.478 15.4464 107.478 14.7772C107.478 12.3947 105.526 10.4675 103.174 10.4675H102.906C100.554 10.4675 98.6026 12.368 98.6026 14.7772V19.3815C98.6026 21.764 100.527 23.6911 102.906 23.6911H103.174C105.553 23.6911 107.478 21.764 107.478 19.3815ZM120.096 22.6738V14.7772C120.096 12.3947 118.171 10.4675 115.791 10.4675H115.577C114.642 10.4675 113.706 10.7887 113.251 11.2705V5.88997C113.251 5.22037 112.744 4.8728 112.236 4.8728C111.728 4.8728 111.22 5.22059 111.22 5.88997V22.6738C111.22 23.3431 111.728 23.6911 112.236 23.6911C112.744 23.6911 113.251 23.3431 113.251 22.6738V14.6434C113.251 13.2512 114.455 12.5019 115.685 12.5019C116.861 12.5019 118.063 13.2247 118.063 14.7772V22.6738C118.063 23.3431 118.571 23.6911 119.079 23.6911C119.587 23.6911 120.096 23.3431 120.096 22.6738ZM133.461 22.6478C133.461 22.219 133.194 21.7906 132.606 21.6837C132.125 21.6035 131.911 21.2817 131.911 20.8001V14.5895C131.911 12.2875 130.093 10.4673 127.714 10.4673H127.527C126.11 10.4673 124.399 11.0295 123.543 12.9569C123.463 13.1173 123.436 13.2778 123.436 13.4387C123.436 14.0009 123.945 14.3755 124.452 14.3755C124.8 14.3755 125.147 14.2151 125.361 13.84C125.869 12.9566 126.431 12.5017 127.527 12.5017H127.714C128.89 12.5017 129.879 13.0907 129.879 14.6696C129.879 14.8037 129.879 15.0178 129.8 15.1248C129.158 16.0352 123.223 15.2853 123.036 19.5148V19.836C123.036 22.326 125.175 23.6909 127.34 23.6909H127.581C128.676 23.6909 129.692 23.2894 130.468 22.6207C130.815 23.1292 131.377 23.5307 132.285 23.6643C132.339 23.6909 132.419 23.6909 132.473 23.6909C133.114 23.6911 133.461 23.1825 133.461 22.6478ZM129.879 19.3815C129.879 20.6396 128.836 21.657 127.58 21.657H127.34C125.976 21.657 125.067 20.9342 125.067 19.7829V19.5686C125.147 17.6947 127.901 17.8021 129.879 17.2668V19.3815ZM138.701 22.6738V11.4847C138.701 10.8153 138.193 10.4675 137.685 10.4675C137.177 10.4675 136.669 10.8156 136.669 11.4847V22.6738C136.669 23.3431 137.177 23.6911 137.685 23.6911C138.193 23.6911 138.701 23.3431 138.701 22.6738ZM151.853 22.6738V14.7772C151.853 11.8325 149.848 10.4675 147.576 10.4675H147.335C146.399 10.4675 145.517 10.7887 145.036 11.2705C144.93 10.7348 144.474 10.4675 144.02 10.4675C143.485 10.4675 142.978 10.8422 142.978 11.4847V22.6738C142.978 23.3431 143.486 23.6911 143.994 23.6911C144.502 23.6911 145.009 23.3431 145.009 22.6738V14.7772C145.009 13.5193 146.052 12.5019 147.308 12.5019H147.549C148.832 12.5019 149.848 13.5193 149.848 14.7772V22.6738C149.848 23.3431 150.356 23.6911 150.864 23.6911C151.372 23.6911 151.853 23.3431 151.853 22.6738ZM162.343 22.6738V11.4847C162.343 10.8153 161.835 10.4675 161.327 10.4675C160.82 10.4675 160.312 10.8156 160.312 11.4847V22.6738C160.312 23.3431 160.82 23.6911 161.327 23.6911C161.835 23.6911 162.343 23.3431 162.343 22.6738ZM175.201 19.3815V14.7772C175.201 12.3947 173.276 10.4675 170.897 10.4675H170.63C168.251 10.4675 166.326 12.3947 166.326 14.7772V19.3815C166.326 21.764 168.251 23.6911 170.63 23.6911H170.897C173.277 23.6911 175.201 21.764 175.201 19.3815ZM173.17 19.3815C173.17 20.6396 172.154 21.657 170.897 21.657H170.657C169.373 21.657 168.358 20.6396 168.358 19.3815V14.7772C168.358 13.5193 169.373 12.5019 170.63 12.5019H170.897C172.154 12.5019 173.17 13.5193 173.17 14.7772V19.3815Z" fill="white" fill-opacity="0.5"/>
<path d="M21.6134 13.6287C20.9944 13.6287 20.491 14.133 20.491 14.7526C20.491 15.3722 20.9946 15.8763 21.6134 15.8763C22.2321 15.8763 22.736 15.3722 22.736 14.7526C22.736 14.133 22.2324 13.6287 21.6134 13.6287Z" fill="white" fill-opacity="0.5"/>
<path d="M26.8031 10.5105C26.1841 10.5105 25.6812 11.0148 25.6812 11.6344C25.6812 12.2543 26.1843 12.7581 26.8031 12.7581C27.4219 12.7581 27.9259 12.2541 27.9259 11.6344C27.9262 11.0148 27.4221 10.5105 26.8031 10.5105Z" fill="white" fill-opacity="0.5"/>
<path d="M31.9931 7.39233C31.3743 7.39233 30.8707 7.8964 30.8707 8.51604C30.8707 9.13589 31.3743 9.64062 31.9931 9.64062C32.6123 9.64062 33.1155 9.13611 33.1155 8.51604C33.1155 7.8964 32.6123 7.39233 31.9931 7.39233Z" fill="white" fill-opacity="0.5"/>
<path d="M16.4233 4.27393C15.8045 4.27393 15.3009 4.77822 15.3009 5.39807C15.3009 6.0177 15.8045 6.52177 16.4233 6.52177C17.0423 6.52177 17.5459 6.0177 17.5459 5.39807C17.5459 4.77822 17.0425 4.27393 16.4233 4.27393Z" fill="white" fill-opacity="0.5"/>
<path d="M21.6135 1.15576C20.9945 1.15576 20.4911 1.66027 20.4911 2.27991C20.4911 2.89976 20.9947 3.40405 21.6135 3.40405C22.2323 3.40405 22.7361 2.89976 22.7361 2.27991C22.7361 1.66027 22.2325 1.15576 21.6135 1.15576Z" fill="white" fill-opacity="0.5"/>
<path d="M21.6134 7.39233C20.9944 7.39233 20.491 7.8964 20.491 8.51604C20.491 9.13589 20.9946 9.64062 21.6134 9.64062C22.2321 9.64062 22.736 9.13611 22.736 8.51604C22.736 7.8964 22.2324 7.39233 21.6134 7.39233Z" fill="white" fill-opacity="0.5"/>
<path d="M26.8031 4.27393C26.1841 4.27393 25.6812 4.77822 25.6812 5.39807C25.6812 6.0177 26.1843 6.52177 26.8031 6.52177C27.4219 6.52177 27.9259 6.0177 27.9259 5.39807C27.9262 4.77822 27.4221 4.27393 26.8031 4.27393Z" fill="white" fill-opacity="0.5"/>
<path d="M26.8031 16.7471C26.1841 16.7471 25.6812 17.2511 25.6812 17.8706C25.6812 18.4904 26.1843 18.9945 26.8031 18.9945C27.4219 18.9945 27.9259 18.4904 27.9259 17.8706C27.9262 17.2511 27.4221 16.7471 26.8031 16.7471Z" fill="white" fill-opacity="0.5"/>
<path d="M31.9931 13.6287C31.3743 13.6287 30.8707 14.133 30.8707 14.7526C30.8707 15.3722 31.3743 15.8763 31.9931 15.8763C32.6123 15.8763 33.1155 15.3722 33.1155 14.7526C33.1155 14.133 32.6123 13.6287 31.9931 13.6287Z" fill="white" fill-opacity="0.5"/>
<path d="M26.8031 22.9832C26.1841 22.9832 25.6812 23.4872 25.6812 24.1071C25.6812 24.7267 26.1843 25.2308 26.8031 25.2308C27.4219 25.2308 27.9259 24.7267 27.9259 24.1071C27.9262 23.4872 27.4221 22.9832 26.8031 22.9832Z" fill="white" fill-opacity="0.5"/>
<path d="M31.9931 19.865C31.3743 19.865 30.8707 20.3691 30.8707 20.9889C30.8707 21.6085 31.3743 22.1126 31.9931 22.1126C32.6123 22.1126 33.1155 21.6085 33.1155 20.9889C33.1155 20.3691 32.6123 19.865 31.9931 19.865Z" fill="white" fill-opacity="0.5"/>
<path d="M21.6134 26.1013C20.9944 26.1013 20.491 26.6056 20.491 27.2252C20.491 27.8447 20.9946 28.3489 21.6134 28.3489C22.2321 28.3489 22.736 27.8447 22.736 27.2252C22.736 26.6056 22.2324 26.1013 21.6134 26.1013Z" fill="white" fill-opacity="0.5"/>
<path d="M21.6134 19.865C20.9944 19.865 20.491 20.3691 20.491 20.9889C20.491 21.6085 20.9946 22.1126 21.6134 22.1126C22.2321 22.1126 22.736 21.6085 22.736 20.9889C22.736 20.3691 22.2324 19.865 21.6134 19.865Z" fill="white" fill-opacity="0.5"/>
<path d="M16.4233 10.5105C15.8045 10.5105 15.3009 11.0148 15.3009 11.6344C15.3009 12.2543 15.8045 12.7581 16.4233 12.7581C17.0423 12.7581 17.5459 12.2541 17.5459 11.6344C17.5459 11.0148 17.0425 10.5105 16.4233 10.5105Z" fill="white" fill-opacity="0.5"/>
<path d="M16.4233 22.9832C15.8045 22.9832 15.3009 23.4872 15.3009 24.1071C15.3009 24.7267 15.8045 25.2308 16.4233 25.2308C17.0423 25.2308 17.5459 24.7267 17.5459 24.1071C17.5459 23.4872 17.0425 22.9832 16.4233 22.9832Z" fill="white" fill-opacity="0.5"/>
<path d="M16.4233 16.7471C15.8045 16.7471 15.3009 17.2511 15.3009 17.8706C15.3009 18.4904 15.8045 18.9945 16.4233 18.9945C17.0423 18.9945 17.5459 18.4904 17.5459 17.8706C17.5459 17.2511 17.0425 16.7471 16.4233 16.7471Z" fill="white" fill-opacity="0.5"/>
<path d="M11.2336 7.39233C10.6146 7.39233 10.1115 7.8964 10.1115 8.51604C10.1115 9.13589 10.6148 9.64062 11.2336 9.64062C11.8524 9.64062 12.3562 9.13611 12.3562 8.51604C12.3562 7.8964 11.8524 7.39233 11.2336 7.39233Z" fill="white" fill-opacity="0.5"/>
<path d="M11.2336 19.865C10.6146 19.865 10.1115 20.3691 10.1115 20.9889C10.1115 21.6085 10.6148 22.1126 11.2336 22.1126C11.8524 22.1126 12.3562 21.6085 12.3562 20.9889C12.3562 20.3691 11.8524 19.865 11.2336 19.865Z" fill="white" fill-opacity="0.5"/>
<path d="M11.2336 13.6287C10.6146 13.6287 10.1115 14.133 10.1115 14.7526C10.1115 15.3722 10.6148 15.8763 11.2336 15.8763C11.8524 15.8763 12.3562 15.3722 12.3562 14.7526C12.3562 14.133 11.8524 13.6287 11.2336 13.6287Z" fill="white" fill-opacity="0.5"/>
<path d="M137.668 4.81689C137.105 4.81689 136.647 5.2754 136.647 5.83934C136.647 6.40329 137.105 6.86201 137.668 6.86201C138.231 6.86201 138.69 6.40329 138.69 5.83934C138.69 5.2754 138.232 4.81689 137.668 4.81689Z" fill="white" fill-opacity="0.5"/>
<path d="M161.319 4.81689C160.755 4.81689 160.297 5.2754 160.297 5.83934C160.297 6.40329 160.756 6.86201 161.319 6.86201C161.882 6.86201 162.34 6.40329 162.34 5.83934C162.34 5.2754 161.882 4.81689 161.319 4.81689Z" fill="white" fill-opacity="0.5"/>
<path d="M155.961 21.7302C155.401 21.7302 154.945 22.1863 154.945 22.7472C154.945 23.308 155.401 23.7646 155.961 23.7646C156.521 23.7646 156.977 23.308 156.977 22.7472C156.977 22.1863 156.521 21.7302 155.961 21.7302Z" fill="white" fill-opacity="0.5"/>
</g>
<defs>
<clipPath id="clip0_2_791">
<rect width="188.384" height="28.6154" fill="white"/>
</clipPath>
</defs>
</svg>
