<svg width="171" height="54" viewBox="0 0 171 54" fill="none" xmlns="http://www.w3.org/2000/svg">
<g clip-path="url(#clip0_2_435)">
<path fill-rule="evenodd" clip-rule="evenodd" d="M56.6774 25.6311C56.47 23.254 54.6388 21.0837 52.1171 21.0837C49.5954 21.0837 47.7994 23.254 47.5579 25.6311H56.6764H56.6774ZM57.7127 26.1034C57.7116 26.2347 57.6583 26.3603 57.5646 26.4526C57.4709 26.5449 57.3443 26.5964 57.2126 26.5958H47.5579C47.7994 28.974 49.5954 31.1443 52.1171 31.1443C53.844 31.1443 55.1229 30.4895 56.0901 29.1109C56.2306 28.9231 56.4359 28.8 56.7051 28.9136C56.7667 28.941 56.8218 28.9812 56.8666 29.0315C56.9115 29.0818 56.9451 29.141 56.9652 29.2052C56.9853 29.2695 56.9915 29.3373 56.9834 29.4041C56.9752 29.4709 56.9529 29.5352 56.9179 29.5928C55.9518 31.2822 54.0174 32.1079 52.1171 32.1079C48.8708 32.1079 46.5556 29.215 46.5556 26.114C46.5556 23.0131 48.8708 20.1191 52.1171 20.1191C55.3613 20.1191 57.7074 23.0056 57.7138 26.1034H57.7127ZM69.4232 20.36C69.6998 20.36 69.9073 20.6019 69.9073 20.8428C69.9073 21.1187 69.6998 21.3246 69.4232 21.3246H66.8323V31.4542C66.8296 31.5811 66.7778 31.7021 66.6878 31.7919C66.5978 31.8816 66.4765 31.9333 66.3492 31.936C66.2218 31.9335 66.1002 31.882 66.01 31.7922C65.9198 31.7024 65.8678 31.5813 65.8651 31.4542V21.3246H63.3785C63.3146 21.3262 63.251 21.3149 63.1917 21.2912C63.1323 21.2676 63.0783 21.2322 63.033 21.1871C62.9878 21.1421 62.9522 21.0883 62.9283 21.0292C62.9045 20.97 62.893 20.9066 62.8944 20.8428C62.8944 20.6019 63.1019 20.36 63.3785 20.36H65.8651V16.652C65.8651 16.4185 66.0247 16.202 66.2556 16.1649C66.5769 16.1118 66.8323 16.3336 66.8323 16.6392V20.36H69.4232ZM85.2087 25.2523V31.3863C85.2087 31.6611 84.9672 31.867 84.7246 31.867C84.6608 31.8684 84.5973 31.857 84.538 31.8333C84.4788 31.8096 84.4249 31.7741 84.3798 31.7291C84.3346 31.6841 84.2991 31.6304 84.2754 31.5713C84.2516 31.5122 84.2401 31.4489 84.2416 31.3852V25.2523C84.2416 23.185 83.0669 21.1177 80.7527 21.1177C77.782 21.1177 76.5041 23.7018 76.6775 26.3549C76.6775 26.4239 76.7116 26.7338 76.7116 26.7688V31.3725C76.7116 31.6059 76.552 31.8224 76.3222 31.8606C75.9998 31.9126 75.7444 31.6908 75.7444 31.3852V11.2301C75.7444 10.9892 75.9519 10.7483 76.2275 10.7483C76.5041 10.7483 76.7116 10.9892 76.7116 11.2301V22.6342C77.5415 21.1527 79.0258 20.153 80.7527 20.153C83.5851 20.153 85.2087 22.6342 85.2087 25.2523ZM101.478 25.6311C101.271 23.254 99.4398 21.0837 96.9181 21.0837C94.3964 21.0837 92.6004 23.254 92.3588 25.6311H101.477H101.478ZM102.514 26.1034C102.513 26.2347 102.459 26.3603 102.366 26.4526C102.272 26.5449 102.145 26.5964 102.014 26.5958H92.3588C92.6004 28.974 94.3964 31.1443 96.9181 31.1443C98.646 31.1443 99.9239 30.4895 100.891 29.1109C101.032 28.9231 101.237 28.8 101.506 28.9136C101.568 28.941 101.623 28.9812 101.668 29.0315C101.712 29.0818 101.746 29.141 101.766 29.2052C101.786 29.2695 101.793 29.3373 101.784 29.4041C101.776 29.4709 101.754 29.5352 101.719 29.5928C100.753 31.2822 98.8184 32.1079 96.9181 32.1079C93.6718 32.1079 91.3576 29.215 91.3576 26.114C91.3576 23.0131 93.6718 20.1191 96.9181 20.1191C100.162 20.1191 102.508 23.0056 102.515 26.1034H102.514ZM114.362 20.8078C114.362 21.1187 114.19 21.2907 113.913 21.3246C111.081 21.7385 109.803 24.0467 109.803 26.7338V31.3385C109.803 31.572 109.644 31.7874 109.413 31.8256C109.091 31.8776 108.835 31.6558 108.835 31.3502V20.8545C108.835 20.621 108.995 20.4056 109.225 20.3674C109.548 20.3154 109.803 20.5372 109.803 20.8428V22.9791C110.597 21.6345 112.187 20.361 113.844 20.361C114.086 20.361 114.362 20.5329 114.362 20.8078ZM129.181 25.6311C128.973 23.254 127.143 21.0837 124.622 21.0837C122.1 21.0837 120.304 23.254 120.062 25.6311H129.181ZM130.217 26.1034C130.216 26.2347 130.162 26.3601 130.069 26.4523C129.975 26.5445 129.849 26.5961 129.717 26.5958H120.062C120.304 28.974 122.1 31.1443 124.622 31.1443C126.348 31.1443 127.626 30.4895 128.594 29.1109C128.735 28.9231 128.94 28.8 129.21 28.9136C129.28 28.9442 129.343 28.992 129.39 29.0525C129.438 29.1131 129.47 29.1846 129.483 29.2606C129.505 29.3753 129.483 29.4941 129.422 29.5938C128.455 31.2812 126.521 32.109 124.622 32.109C121.374 32.109 119.061 29.215 119.061 26.1129C119.061 23.0131 121.374 20.1191 124.622 20.1191C127.865 20.1191 130.212 23.0056 130.218 26.1034H130.217ZM145.795 20.9298V31.4542C145.795 31.7301 145.554 31.936 145.312 31.936C145.248 31.9376 145.185 31.9262 145.125 31.9026C145.066 31.8789 145.012 31.8435 144.967 31.7985C144.921 31.7534 144.886 31.6997 144.862 31.6405C144.838 31.5813 144.827 31.5179 144.828 31.4542V29.4559C144.034 31.0403 142.618 32.1779 140.821 32.1779C137.955 32.1779 136.366 29.6968 136.366 27.0787V20.9129C136.366 20.6709 136.572 20.4289 136.849 20.4289C137.126 20.4289 137.333 20.6709 137.333 20.9118V27.0787C137.333 29.146 138.507 31.2133 140.821 31.2133C144.068 31.2133 144.828 28.1813 144.828 24.8384V20.9118C144.829 20.8368 144.847 20.7631 144.882 20.6964C144.916 20.6297 144.965 20.5717 145.025 20.5269C145.086 20.4822 145.155 20.4519 145.229 20.4384C145.303 20.4249 145.379 20.4286 145.452 20.4491C145.553 20.4816 145.642 20.5459 145.703 20.6325C145.765 20.7192 145.798 20.8235 145.795 20.9298ZM170.216 25.2183V31.3841C170.216 31.6611 169.975 31.867 169.733 31.867C169.669 31.8686 169.606 31.8572 169.546 31.8336C169.487 31.81 169.433 31.7745 169.388 31.7295C169.342 31.6845 169.307 31.6307 169.283 31.5715C169.259 31.5123 169.248 31.4489 169.249 31.3852V25.2183C169.249 23.151 168.076 21.1187 165.76 21.1187C162.86 21.1187 161.754 24.2186 161.754 26.6308V31.3852C161.754 31.6611 161.513 31.867 161.27 31.867C161.206 31.8686 161.143 31.8572 161.083 31.8336C161.024 31.8099 160.97 31.7745 160.925 31.7294C160.88 31.6844 160.844 31.6306 160.821 31.5714C160.797 31.5123 160.785 31.4489 160.787 31.3852V25.2183C160.787 23.151 159.612 21.1187 157.298 21.1187C154.362 21.1187 153.153 23.4269 153.256 26.4929C153.256 26.5618 153.291 26.6998 153.256 26.7338V31.3735C153.256 31.607 153.098 31.8214 152.867 31.8596C152.544 31.9126 152.289 31.6898 152.289 31.3852V20.8556C152.289 20.6221 152.448 20.4056 152.679 20.3674C153.001 20.3154 153.256 20.5372 153.256 20.8428V22.5992C154.086 21.1187 155.571 20.1541 157.299 20.1541C159.267 20.1541 160.787 21.3936 161.408 23.22C162.202 21.4286 163.757 20.153 165.76 20.153C168.593 20.153 170.216 22.5992 170.216 25.2183Z" fill="white" fill-opacity="0.5"/>
<path fill-rule="evenodd" clip-rule="evenodd" d="M0.347961 27.1306L16.4783 36.6414V0.435059L0.347961 27.1306Z" fill="white" fill-opacity="0.5"/>
<path fill-rule="evenodd" clip-rule="evenodd" d="M16.4794 0.435059V36.6414L32.6097 27.1306L16.4794 0.435059Z" fill="white" fill-opacity="0.5"/>
<path fill-rule="evenodd" clip-rule="evenodd" d="M16.4793 19.8186L0.347961 27.1306L16.4783 36.6414L32.6096 27.1316L16.4793 19.8186Z" fill="white" fill-opacity="0.5"/>
<path fill-rule="evenodd" clip-rule="evenodd" d="M16.4793 19.8186L0.347961 27.1306L16.4783 36.6414L16.4793 19.8186Z" fill="white" fill-opacity="0.5"/>
<path fill-rule="evenodd" clip-rule="evenodd" d="M0.347961 30.1816L16.4783 52.854V39.6872L0.347961 30.1816Z" fill="white" fill-opacity="0.5"/>
<path fill-rule="evenodd" clip-rule="evenodd" d="M16.4794 39.6872V52.8551L32.6203 30.1816L16.4794 39.6872Z" fill="white" fill-opacity="0.5"/>
</g>
<defs>
<clipPath id="clip0_2_435">
<rect width="170.241" height="53.062" fill="white"/>
</clipPath>
</defs>
</svg>
