<svg width="92" height="29" viewBox="0 0 92 29" fill="none" xmlns="http://www.w3.org/2000/svg">
<g clip-path="url(#clip0_2_777)">
<path fill-rule="evenodd" clip-rule="evenodd" d="M30.5651 13.8224C30.4532 12.5405 29.4657 11.3701 28.1058 11.3701C26.7459 11.3701 25.7773 12.5405 25.6471 13.8224H30.5645H30.5651ZM31.1234 14.0771C31.1228 14.1479 31.0941 14.2157 31.0435 14.2654C30.993 14.3152 30.9247 14.343 30.8537 14.3427H25.6471C25.7773 15.6252 26.7459 16.7956 28.1058 16.7956C29.0371 16.7956 29.7268 16.4424 30.2484 15.699C30.3241 15.5977 30.4349 15.5313 30.58 15.5926C30.6133 15.6074 30.6429 15.629 30.6671 15.6562C30.6913 15.6833 30.7094 15.7152 30.7203 15.7499C30.7311 15.7845 30.7345 15.8211 30.7301 15.8571C30.7257 15.8931 30.7137 15.9278 30.6948 15.9589C30.1738 16.87 29.1306 17.3152 28.1058 17.3152C26.3551 17.3152 25.1066 15.7551 25.1066 14.0828C25.1066 12.4105 26.3551 10.8499 28.1058 10.8499C29.8553 10.8499 31.1205 12.4065 31.124 14.0771H31.1234ZM37.4386 10.9798C37.5878 10.9798 37.6997 11.1103 37.6997 11.2402C37.6997 11.389 37.5878 11.5 37.4386 11.5H36.0414V16.9627C36.04 17.0311 36.012 17.0964 35.9635 17.1448C35.915 17.1932 35.8496 17.221 35.7809 17.2225C35.7122 17.2212 35.6466 17.1934 35.598 17.145C35.5493 17.0966 35.5213 17.0312 35.5198 16.9627V11.5H34.1789C34.1444 11.5009 34.1101 11.4947 34.0781 11.482C34.0461 11.4692 34.017 11.4501 33.9926 11.4259C33.9681 11.4016 33.9489 11.3726 33.9361 11.3407C33.9232 11.3087 33.917 11.2746 33.9178 11.2402C33.9178 11.1103 34.0297 10.9798 34.1789 10.9798H35.5198V8.98013C35.5198 8.85423 35.6059 8.73747 35.7304 8.71744C35.9037 8.68883 36.0414 8.80844 36.0414 8.97327V10.9798H37.4386ZM45.9515 13.6181V16.9261C45.9515 17.0743 45.8212 17.1853 45.6904 17.1853C45.656 17.1861 45.6218 17.1799 45.5898 17.1671C45.5578 17.1543 45.5288 17.1352 45.5045 17.1109C45.4801 17.0867 45.461 17.0577 45.4481 17.0258C45.4353 16.9939 45.4291 16.9598 45.4299 16.9255V13.6181C45.4299 12.5033 44.7964 11.3884 43.5484 11.3884C41.9464 11.3884 41.2572 12.782 41.3508 14.2127C41.3508 14.2499 41.3691 14.4171 41.3691 14.4359V16.9186C41.3691 17.0445 41.2831 17.1613 41.1591 17.1819C40.9853 17.2099 40.8476 17.0903 40.8476 16.9255V6.05621C40.8476 5.9263 40.9594 5.79639 41.1081 5.79639C41.2572 5.79639 41.3691 5.9263 41.3691 6.05621V12.2062C41.8167 11.4073 42.6171 10.8682 43.5484 10.8682C45.0759 10.8682 45.9515 12.2062 45.9515 13.6181ZM54.7254 13.8224C54.6135 12.5405 53.626 11.3701 52.2661 11.3701C50.9062 11.3701 49.9377 12.5405 49.8074 13.8224H54.7249H54.7254ZM55.2837 14.0771C55.2831 14.1479 55.2544 14.2157 55.2039 14.2654C55.1533 14.3152 55.0851 14.343 55.014 14.3427H49.8074C49.9377 15.6252 50.9062 16.7956 52.2661 16.7956C53.198 16.7956 53.8871 16.4424 54.4087 15.699C54.4844 15.5977 54.5952 15.5313 54.7403 15.5926C54.7736 15.6074 54.8033 15.629 54.8275 15.6562C54.8516 15.6833 54.8698 15.7152 54.8806 15.7499C54.8915 15.7845 54.8948 15.8211 54.8904 15.8571C54.886 15.8931 54.874 15.9278 54.8551 15.9589C54.3341 16.87 53.2909 17.3152 52.2661 17.3152C50.5155 17.3152 49.2675 15.7551 49.2675 14.0828C49.2675 12.4105 50.5155 10.8499 52.2661 10.8499C54.0156 10.8499 55.2809 12.4065 55.2843 14.0771H55.2837ZM61.6735 11.2213C61.6735 11.389 61.5806 11.4817 61.4314 11.5C59.9039 11.7232 59.2148 12.968 59.2148 14.4171V16.9003C59.2148 17.0262 59.1287 17.1424 59.0042 17.163C58.831 17.191 58.6927 17.0714 58.6927 16.9066V11.2465C58.6927 11.1206 58.7787 11.0044 58.9032 10.9838C59.0771 10.9557 59.2148 11.0754 59.2148 11.2402V12.3922C59.6429 11.6671 60.5001 10.9803 61.3941 10.9803C61.5244 10.9803 61.6735 11.0731 61.6735 11.2213ZM69.6648 13.8224C69.5529 12.5405 68.566 11.3701 67.2061 11.3701C65.8462 11.3701 64.8776 12.5405 64.7474 13.8224H69.6648ZM70.2237 14.0771C70.2229 14.1479 70.1942 14.2155 70.1437 14.2653C70.0932 14.315 70.025 14.3428 69.954 14.3427H64.7474C64.8776 15.6252 65.8462 16.7956 67.2061 16.7956C68.1374 16.7956 68.8265 16.4424 69.3481 15.699C69.4244 15.5977 69.5351 15.5313 69.6803 15.5926C69.7185 15.6091 69.7521 15.6349 69.7778 15.6675C69.8036 15.7002 69.8207 15.7388 69.8278 15.7797C69.8396 15.8416 69.8279 15.9056 69.7951 15.9594C69.2735 16.8694 68.2303 17.3158 67.2061 17.3158C65.4549 17.3158 64.2074 15.7551 64.2074 14.0823C64.2074 12.4105 65.4549 10.8499 67.2061 10.8499C68.955 10.8499 70.2208 12.4065 70.2243 14.0771H70.2237ZM78.6247 11.2871V16.9627C78.6247 17.1115 78.4944 17.2225 78.3642 17.2225C78.3297 17.2234 78.2954 17.2172 78.2634 17.2045C78.2314 17.1917 78.2023 17.1727 78.1778 17.1484C78.1534 17.1241 78.1342 17.0951 78.1214 17.0632C78.1085 17.0312 78.1023 16.9971 78.1031 16.9627V15.885C77.675 16.7395 76.9113 17.353 75.9422 17.353C74.3964 17.353 73.5397 16.0149 73.5397 14.6031V11.2779C73.5397 11.1475 73.651 11.017 73.8002 11.017C73.9494 11.017 74.0613 11.1475 74.0613 11.2774V14.6031C74.0613 15.7179 74.6942 16.8328 75.9422 16.8328C77.6934 16.8328 78.1031 15.1977 78.1031 13.3949V11.2774C78.1036 11.237 78.1135 11.1972 78.132 11.1612C78.1504 11.1252 78.1769 11.094 78.2094 11.0698C78.242 11.0457 78.2796 11.0294 78.3195 11.0221C78.3593 11.0148 78.4004 11.0168 78.4393 11.0278C78.4941 11.0454 78.5418 11.0801 78.5752 11.1268C78.6086 11.1735 78.6259 11.2297 78.6247 11.2871ZM91.7945 13.5998V16.9249C91.7945 17.0743 91.6642 17.1853 91.534 17.1853C91.4995 17.1862 91.4652 17.18 91.4332 17.1673C91.4012 17.1545 91.3721 17.1354 91.3476 17.1112C91.3232 17.0869 91.304 17.0579 91.2912 17.026C91.2783 16.994 91.2721 16.9599 91.2729 16.9255V13.5998C91.2729 12.4849 90.64 11.389 89.3914 11.389C87.8272 11.389 87.2311 13.0607 87.2311 14.3615V16.9255C87.2311 17.0743 87.1008 17.1853 86.97 17.1853C86.9355 17.1862 86.9013 17.18 86.8693 17.1673C86.8373 17.1545 86.8082 17.1354 86.7839 17.1111C86.7595 17.0868 86.7403 17.0578 86.7275 17.0259C86.7148 16.994 86.7086 16.9598 86.7095 16.9255V13.5998C86.7095 12.4849 86.076 11.389 84.828 11.389C83.2443 11.389 82.5925 12.6337 82.6481 14.2871C82.6481 14.3243 82.6671 14.3987 82.6481 14.4171V16.9192C82.6481 17.0451 82.5626 17.1607 82.4381 17.1813C82.2643 17.2099 82.1266 17.0897 82.1266 16.9255V11.247C82.1266 11.1211 82.2126 11.0044 82.3371 10.9838C82.5104 10.9557 82.6481 11.0754 82.6481 11.2402V12.1873C83.0957 11.389 83.8967 10.8687 84.8286 10.8687C85.8895 10.8687 86.7095 11.5372 87.0446 12.5221C87.4726 11.5561 88.311 10.8682 89.3914 10.8682C90.9189 10.8682 91.7945 12.1873 91.7945 13.5998Z" fill="white" fill-opacity="0.5"/>
<path fill-rule="evenodd" clip-rule="evenodd" d="M0.187622 14.631L8.8864 19.76V0.234619L0.187622 14.631Z" fill="white" fill-opacity="0.5"/>
<path fill-rule="evenodd" clip-rule="evenodd" d="M8.88696 0.234619V19.76L17.5857 14.631L8.88696 0.234619Z" fill="white" fill-opacity="0.5"/>
<path fill-rule="evenodd" clip-rule="evenodd" d="M8.88697 10.6877L0.187622 14.6309L8.88639 19.76L17.5857 14.6315L8.88697 10.6877Z" fill="white" fill-opacity="0.5"/>
<path fill-rule="evenodd" clip-rule="evenodd" d="M8.88697 10.6877L0.187622 14.6309L8.88639 19.76L8.88697 10.6877Z" fill="white" fill-opacity="0.5"/>
<path fill-rule="evenodd" clip-rule="evenodd" d="M0.187622 16.2764L8.8864 28.5031V21.4025L0.187622 16.2764Z" fill="white" fill-opacity="0.5"/>
<path fill-rule="evenodd" clip-rule="evenodd" d="M8.88696 21.4025V28.5037L17.5915 16.2764L8.88696 21.4025Z" fill="white" fill-opacity="0.5"/>
</g>
<defs>
<clipPath id="clip0_2_777">
<rect width="91.8076" height="28.6154" fill="white"/>
</clipPath>
</defs>
</svg>
